# xmcd
#
# Track frame offsets: 
#        150
#        11467
#        29460
#        41080
#        53345
#        64995
#        77855
#        93587
#        109525
#        122700
#        136567
#        147945
#
# Disc length: 2138 seconds
#
# Revision: 0
# Processed by: cddbd v1.5PL3 Copyright (c) Steve Scherf et al.
# Submitted via: ExactAudioCopy v0.90b4
#
DISCID=9808580c
DTITLE=Chris LeDoux - Cowboys Ain't Easy To Love
DYEAR=1900
DGENRE=Country
TTITLE0=Cowboys Ain't Easy To Love
TTITLE1=Silence On The Line
TTITLE2=Weekend Country Cowboy
TTITLE3=Bars Shouldn't Have Mirrors
TTITLE4=Round And Round She Goes
TTITLE5=Tennessee Stud
TTITLE6=Hoka Hey, Lakotas
TTITLE7=The Blizzard
TTITLE8=The Old Timer
TTITLE9=Raised By The Railroad
TTITLE10=Let That Leather Crack
TTITLE11=Chisum
EXTD=
EXTT0=
EXTT1=
EXTT2=
EXTT3=
EXTT4=
EXTT5=
EXTT6=
EXTT7=
EXTT8=
EXTT9=
EXTT10=
EXTT11=
PLAYORDER=
